<svg width="625" height="93" viewBox="0 0 625 93" fill="none" xmlns="http://www.w3.org/2000/svg">
<path d="M0 91.3368V1.28643H16.7264V77.186H63.8176V91.3368H0Z" fill="#F3EFE7"/>
<path d="M123.501 92.6232C111.149 92.6232 101.456 89.1499 94.4227 82.2031C87.4748 75.2564 84.0008 65.2222 84.0008 52.1006V1.28643H100.727V51.4574C100.727 60.7197 102.7 67.452 106.646 71.6544C110.677 75.8567 116.339 77.9579 123.63 77.9579C130.921 77.9579 136.539 75.8567 140.485 71.6544C144.43 67.452 146.403 60.7197 146.403 51.4574V1.28643H162.872V52.1006C162.872 65.2222 159.355 75.2564 152.322 82.2031C145.374 89.1499 135.767 92.6232 123.501 92.6232Z" fill="#F3EFE7"/>
<path d="M236.991 92.6232C230.129 92.6232 223.739 91.5083 217.82 89.2785C211.987 86.9629 206.884 83.7469 202.509 79.6303C198.22 75.4279 194.875 70.4966 192.473 64.8363C190.071 59.176 188.87 53.0011 188.87 46.3116C188.87 39.6222 190.071 33.4473 192.473 27.787C194.875 22.1267 198.263 17.2382 202.638 13.1216C207.012 8.91928 212.116 5.70319 217.949 3.47337C223.781 1.15779 230.172 0 237.12 0C244.496 0 251.23 1.28644 257.32 3.85931C263.41 6.34641 268.557 10.0771 272.76 15.0513L261.952 25.2141C258.692 21.6979 255.047 19.0821 251.015 17.3669C246.984 15.5659 242.609 14.6653 237.892 14.6653C233.174 14.6653 228.842 15.4372 224.897 16.9809C221.037 18.5247 217.648 20.7116 214.732 23.5417C211.901 26.3719 209.671 29.7166 208.041 33.5759C206.498 37.4352 205.726 41.6805 205.726 46.3116C205.726 50.9428 206.498 55.188 208.041 59.0473C209.671 62.9066 211.901 66.2513 214.732 69.0815C217.648 71.9117 221.037 74.0986 224.897 75.6423C228.842 77.186 233.174 77.9579 237.892 77.9579C242.609 77.9579 246.984 77.1003 251.015 75.385C255.047 73.584 258.692 70.8825 261.952 67.2805L272.76 77.572C268.557 82.4604 263.41 86.1911 257.32 88.7639C251.23 91.3368 244.454 92.6232 236.991 92.6232Z" fill="#F3EFE7"/>
<path d="M296.662 91.3368V1.28643H313.389V91.3368H296.662Z" fill="#F3EFE7"/>
<path d="M410.14 92.7519L360.475 41.6805C357.473 38.5073 355.071 35.7629 353.27 33.4473C351.554 31.0459 350.353 28.7732 349.667 26.6292C348.981 24.4851 348.638 22.2124 348.638 19.8111C348.638 15.9518 349.539 12.6071 351.34 9.7769C353.227 6.86098 355.886 4.63116 359.317 3.08744C362.748 1.45796 366.78 0.643216 371.412 0.643216C375.615 0.643216 379.26 1.3722 382.348 2.83016C385.522 4.20235 387.966 6.21776 389.682 8.8764C391.483 11.535 392.384 14.7511 392.384 18.5246C392.384 21.7836 391.569 24.8282 389.939 27.6583C388.395 30.4885 385.822 33.2758 382.219 36.0202C378.617 38.6788 373.728 41.6805 367.552 45.0252C362.148 48.0269 357.859 50.7713 354.685 53.2584C351.597 55.7455 349.41 58.1897 348.123 60.591C346.837 62.9066 346.193 65.4795 346.193 68.3096C346.193 71.5686 347.094 74.4416 348.895 76.9287C350.782 79.3301 353.356 81.2169 356.615 82.5891C359.96 83.8755 363.777 84.5187 368.066 84.5187C374.071 84.5187 379.432 83.2752 384.149 80.7881C388.867 78.3009 392.813 74.5274 395.987 69.4674C399.246 64.4075 401.605 58.0611 403.063 50.4282L410.397 52.7438C408.767 61.32 405.979 68.5241 402.034 74.3559C398.088 80.1877 393.199 84.6045 387.366 87.6062C381.533 90.6078 374.928 92.1087 367.552 92.1087C361.719 92.1087 356.529 91.1653 351.983 89.2785C347.437 87.306 343.835 84.6045 341.175 81.174C338.602 77.7435 337.315 73.7556 337.315 69.2102C337.315 65.3508 338.173 61.8346 339.889 58.6614C341.604 55.4024 344.349 52.2292 348.123 49.1418C351.983 45.9686 357.087 42.6667 363.434 39.2362C368.838 36.2346 373.041 33.6617 376.044 31.5176C379.131 29.2878 381.319 27.1866 382.605 25.2141C383.892 23.1558 384.535 20.9689 384.535 18.6533C384.535 15.3086 383.377 12.6071 381.061 10.5488C378.831 8.49047 375.615 7.46132 371.412 7.46132C366.865 7.46132 363.349 8.61911 360.861 10.9347C358.374 13.1645 357.13 16.0804 357.13 19.6824C357.13 21.4834 357.387 23.1987 357.902 24.8282C358.502 26.4577 359.574 28.2587 361.118 30.2312C362.748 32.2037 364.978 34.6908 367.809 37.6925L415.415 86.7057L410.14 92.7519Z" fill="#F3EFE7"/>
<path d="M479.147 92.6232C472.285 92.6232 465.894 91.5083 459.976 89.2785C454.143 86.9629 449.039 83.7469 444.665 79.6303C440.376 75.4279 437.03 70.4966 434.629 64.8363C432.227 59.176 431.026 53.0011 431.026 46.3116C431.026 39.6222 432.227 33.4473 434.629 27.787C437.03 22.1267 440.419 17.2382 444.793 13.1216C449.168 8.91928 454.272 5.70319 460.104 3.47337C465.937 1.15779 472.327 0 479.275 0C486.652 0 493.386 1.28644 499.476 3.85931C505.566 6.34641 510.712 10.0771 514.915 15.0513L504.108 25.2141C500.848 21.6979 497.203 19.0821 493.171 17.3669C489.14 15.5659 484.765 14.6653 480.047 14.6653C475.33 14.6653 470.998 15.4372 467.052 16.9809C463.192 18.5247 459.804 20.7116 456.888 23.5417C454.057 26.3719 451.827 29.7166 450.197 33.5759C448.653 37.4352 447.881 41.6805 447.881 46.3116C447.881 50.9428 448.653 55.188 450.197 59.0473C451.827 62.9066 454.057 66.2513 456.888 69.0815C459.804 71.9117 463.192 74.0986 467.052 75.6423C470.998 77.186 475.33 77.9579 480.047 77.9579C484.765 77.9579 489.14 77.1003 493.171 75.385C497.203 73.584 500.848 70.8825 504.108 67.2805L514.915 77.572C510.712 82.4604 505.566 86.1911 499.476 88.7639C493.386 91.3368 486.609 92.6232 479.147 92.6232Z" fill="#F3EFE7"/>
<path d="M576.622 92.6232C569.588 92.6232 563.112 91.4655 557.194 89.1499C551.275 86.8343 546.129 83.6182 541.754 79.5016C537.379 75.2993 533.991 70.4108 531.59 64.8363C529.188 59.176 527.987 53.0011 527.987 46.3116C527.987 39.6222 529.188 33.4902 531.59 27.9156C533.991 22.2553 537.379 17.3669 541.754 13.2503C546.129 9.04792 551.275 5.78895 557.194 3.47337C563.112 1.15779 569.546 0 576.493 0C583.527 0 589.96 1.15779 595.793 3.47337C601.712 5.78895 606.858 9.04792 611.233 13.2503C615.607 17.3669 618.996 22.2553 621.397 27.9156C623.799 33.4902 625 39.6222 625 46.3116C625 53.0011 623.799 59.176 621.397 64.8363C618.996 70.4966 615.607 75.385 611.233 79.5016C606.858 83.6182 601.712 86.8343 595.793 89.1499C589.96 91.4655 583.57 92.6232 576.622 92.6232ZM576.493 77.9579C581.04 77.9579 585.243 77.186 589.103 75.6423C592.963 74.0986 596.308 71.9117 599.138 69.0815C601.969 66.1656 604.156 62.8209 605.7 59.0473C607.33 55.188 608.145 50.9428 608.145 46.3116C608.145 41.6805 607.33 37.4781 605.7 33.7046C604.156 29.8453 601.969 26.5005 599.138 23.6704C596.308 20.7545 592.963 18.5247 589.103 16.9809C585.243 15.4372 581.04 14.6653 576.493 14.6653C571.947 14.6653 567.744 15.4372 563.884 16.9809C560.11 18.5247 556.765 20.7545 553.849 23.6704C551.018 26.5005 548.788 29.8453 547.158 33.7046C545.614 37.4781 544.842 41.6805 544.842 46.3116C544.842 50.857 545.614 55.0594 547.158 58.9187C548.788 62.778 551.018 66.1656 553.849 69.0815C556.679 71.9117 560.024 74.0986 563.884 75.6423C567.744 77.186 571.947 77.9579 576.493 77.9579Z" fill="#F3EFE7"/>
</svg>
